# xmcd
#
# Track frame offsets: 
#        150
#        19439
#        43593
#        59919
#        84472
#        105493
#        126849
#        148540
#        169384
#        193119
#        219891
#
# Disc length: 3164 seconds
#
# Revision: 0
# Processed by: cddbd v1.5.2PL0 Copyright (c) Steve Scherf et al.
# Submitted via: ExactAudioCopy v1.3
#
DISCID=a20c5a0b
DTITLE=Lucky Losers - In Any Town
DYEAR=2016
DGENRE=R&B
TTITLE0=01 So High
TTITLE1=02 It Ain't Enough
TTITLE2=03 Jackson
TTITLE3=04 Don't Let 'Em See Ya Cry
TTITLE4=05 Blind Man in the Dark
TTITLE5=06 I Can't Change Ya
TTITLE6=07 Still Enough Time to Cry
TTITLE7=08 Give Me a Sign
TTITLE8=09 In Any Town
TTITLE9=10 Devil's Dream
TTITLE10=11 Small Town Talk
EXTD=
EXTT0=
EXTT1=
EXTT2=
EXTT3=
EXTT4=
EXTT5=
EXTT6=
EXTT7=
EXTT8=
EXTT9=
EXTT10=
PLAYORDER=
